<?xml version="1.0" encoding="UTF-8" standalone="no"?>
<!-- Generator: Adobe Illustrator 23.0.5, SVG Export Plug-In . SVG Version: 6.00 Build 0)  -->

<svg
   xmlns:dc="http://purl.org/dc/elements/1.1/"
   xmlns:cc="http://creativecommons.org/ns#"
   xmlns:rdf="http://www.w3.org/1999/02/22-rdf-syntax-ns#"
   xmlns:svg="http://www.w3.org/2000/svg"
   xmlns="http://www.w3.org/2000/svg"
   xmlns:sodipodi="http://sodipodi.sourceforge.net/DTD/sodipodi-0.dtd"
   xmlns:inkscape="http://www.inkscape.org/namespaces/inkscape"
   version="1.1"
   id="Capa_1"
   x="0px"
   y="0px"
   viewBox="0 0 240.75 147.46936"
   xml:space="preserve"
   sodipodi:docname="Codeforces_logo.svg"
   inkscape:version="0.92.4 (5da689c313, 2019-01-14)"
   width="240.75"
   height="147.46936"><metadata
   id="metadata64"><rdf:RDF><cc:Work
       rdf:about=""><dc:format>image/svg+xml</dc:format><dc:type
         rdf:resource="http://purl.org/dc/dcmitype/StillImage" /><dc:title></dc:title></cc:Work></rdf:RDF></metadata><defs
   id="defs62" /><sodipodi:namedview
   pagecolor="#ffffff"
   bordercolor="#666666"
   borderopacity="1"
   objecttolerance="10"
   gridtolerance="10"
   guidetolerance="10"
   inkscape:pageopacity="0"
   inkscape:pageshadow="2"
   inkscape:window-width="2560"
   inkscape:window-height="1376"
   id="namedview60"
   showgrid="false"
   inkscape:zoom="2.64"
   inkscape:cx="142.85615"
   inkscape:cy="32.716035"
   inkscape:window-x="0"
   inkscape:window-y="27"
   inkscape:window-maximized="1"
   inkscape:current-layer="g57" />
<style
   type="text/css"
   id="style2">
	.st0{fill:url(#SVGID_1_);}
	.st1{fill:url(#SVGID_2_);}
	.st2{fill:url(#SVGID_3_);}
	.st3{fill:#425E9C;}
</style>
<g
   id="g57"
   transform="translate(47.4908)">
	<g
   id="g25">
		<linearGradient
   id="SVGID_1_"
   gradientUnits="userSpaceOnUse"
   x1="0"
   y1="74.083397"
   x2="39.3755"
   y2="74.083397">
			<stop
   offset="0"
   style="stop-color:#F6C43D"
   id="stop4" />
			<stop
   offset="1"
   style="stop-color:#FCD975"
   id="stop6" />
		</linearGradient>
		<path
   class="st0"
   d="M 30.3,32.7 H 9 c -5,0 -9,4.1 -9,9 v 64.7 c 0,5 4.1,9 9,9 h 21.3 c 5,0 9,-4.1 9,-9 V 41.7 c 0.1,-5 -4,-9 -9,-9 z"
   id="path9"
   inkscape:connector-curvature="0"
   style="fill:url(#SVGID_1_)" />
		<linearGradient
   id="SVGID_2_"
   gradientUnits="userSpaceOnUse"
   x1="54.252602"
   y1="57.746101"
   x2="93.628197"
   y2="57.746101">
			<stop
   offset="0"
   style="stop-color:#1480C4"
   id="stop11" />
			<stop
   offset="1"
   style="stop-color:#1C99D4"
   id="stop13" />
		</linearGradient>
		<path
   class="st1"
   d="M 84.6,0 H 63.3 c -5,0 -9,4.1 -9,9 v 97.4 c 0,5 4.1,9 9,9 h 21.3 c 5,0 9,-4.1 9,-9 V 9 c 0,-4.9 -4,-9 -9,-9 z"
   id="path16"
   inkscape:connector-curvature="0"
   style="fill:url(#SVGID_2_)" />
		<linearGradient
   id="SVGID_3_"
   gradientUnits="userSpaceOnUse"
   x1="108.3683"
   y1="80.2827"
   x2="147.7438"
   y2="80.2827">
			<stop
   offset="0"
   style="stop-color:#B11E26"
   id="stop18" />
			<stop
   offset="1"
   style="stop-color:#C21C24"
   id="stop20" />
		</linearGradient>
		<path
   class="st2"
   d="m 138.7,45.1 h -21.3 c -5,0 -9,4.1 -9,9 v 52.3 c 0,5 4.1,9 9,9 h 21.3 c 5,0 9,-4.1 9,-9 V 54.1 c 0,-5 -4,-9 -9,-9 z"
   id="path23"
   inkscape:connector-curvature="0"
   style="fill:url(#SVGID_3_)" />
	</g>
	<g
   id="g55"
   transform="matrix(0.3,0,0,0.3,-106.6808,112.15936)">
		<g
   id="g37">
			<g
   id="g35">
				<path
   d="m 275.7,86.8 11,16.5 -1.5,1 c -1.1,-1 -2,-1.5 -2.7,-1.5 -0.7,0 -2.6,0.9 -5.8,2.8 -6.6,3.8 -12.2,6.4 -16.7,7.7 -4.5,1.3 -9.9,2 -16.2,2 -12.5,0 -22.7,-2.9 -30.7,-8.9 -4.7,-3.4 -8.4,-7.7 -11.1,-12.8 -3.1,-5.8 -4.7,-12.2 -4.7,-19.3 0,-9.6 2.8,-17.9 8.4,-24.9 8.4,-10.6 21.1,-15.9 38.1,-15.9 6.2,0 11.6,0.7 16.1,2 4.5,1.3 10.1,3.9 16.8,7.8 3.2,1.8 5.1,2.7 5.8,2.7 0.7,0 1.6,-0.5 2.7,-1.5 l 1.5,1 -11,16.5 -1.6,-1 c 0.1,-0.6 0.1,-1.1 0.1,-1.6 0,-1.1 -0.5,-2.2 -1.4,-3.1 -1,-1 -2.7,-2.2 -5.1,-3.5 C 260.9,49 253.6,47 246,47 c -9,0 -16.2,2.3 -21.6,6.8 -6.3,5.3 -9.5,12.2 -9.5,20.7 0,8.5 3.2,15.4 9.5,20.7 5.4,4.5 12.6,6.8 21.6,6.8 7.6,0 14.9,-1.9 21.7,-5.8 2.5,-1.4 4.2,-2.6 5.1,-3.6 1,-1 1.4,-2 1.4,-3.2 0,-0.4 0,-0.9 -0.1,-1.5 z"
   id="path27"
   inkscape:connector-curvature="0" />
				<path
   d="m 333.6,47.7 c 10.3,0 18.9,2.6 25.8,7.9 8.2,6.3 12.3,15.1 12.3,26.4 0,10.6 -4.1,19.1 -12.3,25.4 -6.8,5.2 -15.3,7.9 -25.6,7.9 -10.3,0 -18.9,-2.6 -25.6,-7.9 -8.3,-6.3 -12.4,-15 -12.4,-25.9 0,-11.1 4.1,-19.7 12.4,-25.9 6.7,-5.1 15.2,-7.8 25.4,-7.9 z m 0.1,12.3 c -6.7,0 -12.1,2.1 -16.3,6.4 -3.9,4 -5.8,9 -5.8,15.1 0,6 1.9,11 5.8,15 4.2,4.3 9.7,6.5 16.4,6.5 6.7,0 12.1,-2.2 16.3,-6.5 3.9,-4 5.9,-8.9 5.9,-14.8 0,-6.4 -2,-11.5 -5.9,-15.4 -4.3,-4.1 -9.8,-6.2 -16.4,-6.3 z"
   id="path29"
   inkscape:connector-curvature="0" />
				<path
   d="M 385.3,108 V 55 c 0,-1.2 -0.3,-2.1 -0.8,-2.7 -0.5,-0.6 -1.5,-1.1 -2.9,-1.6 v -1.6 h 38 c 7.9,0 14.1,1 18.7,3 6.4,2.8 11,7.4 13.8,13.8 2,4.5 3,9.7 3,15.7 0,11.1 -3.3,19.5 -9.9,25.2 -3,2.5 -6.5,4.4 -10.5,5.5 -4,1.1 -9.1,1.7 -15.1,1.7 h -38 v -1.6 c 1.3,-0.3 2.3,-0.8 2.9,-1.5 0.5,-0.8 0.8,-1.7 0.8,-2.9 z m 15.5,-5.8 h 16.5 c 7.6,0 13.1,-1.7 16.5,-5.2 3.6,-3.6 5.4,-8.8 5.4,-15.4 0,-6.7 -1.8,-11.8 -5.4,-15.4 -1.8,-1.8 -4,-3.1 -6.6,-4 -2.6,-0.8 -5.9,-1.2 -10,-1.2 h -16.5 v 41.2 z"
   id="path31"
   inkscape:connector-curvature="0" />
				<path
   d="m 484.2,86.4 v 15.8 h 41.1 c 1.2,0 2.1,-0.3 2.7,-0.8 0.6,-0.5 1.1,-1.5 1.5,-2.9 h 1.6 v 19.1 h -1.6 c -0.3,-1.3 -0.8,-2.3 -1.5,-2.9 -0.7,-0.6 -1.6,-0.8 -2.8,-0.8 H 465 v -1.6 c 1.3,-0.3 2.3,-0.8 2.9,-1.5 0.6,-0.7 0.8,-1.6 0.8,-2.8 V 55 c 0,-1.2 -0.3,-2.1 -0.8,-2.7 -0.5,-0.6 -1.5,-1.1 -2.9,-1.6 v -1.6 h 58.5 c 1.2,0 2.2,-0.3 2.8,-0.8 0.6,-0.5 1.1,-1.5 1.5,-2.9 h 1.6 v 19.1 h -1.6 c -0.4,-1.4 -0.9,-2.4 -1.5,-2.9 -0.6,-0.5 -1.6,-0.8 -2.8,-0.8 H 484.2 V 75 h 24.4 c 1.2,0 2.1,-0.3 2.7,-0.8 0.6,-0.5 1.2,-1.5 1.6,-2.9 h 1.6 V 90 h -1.6 c -0.4,-1.4 -0.9,-2.3 -1.5,-2.9 -0.6,-0.6 -1.6,-0.8 -2.8,-0.8 h -24.4 z"
   id="path33"
   inkscape:connector-curvature="0" />
			</g>
		</g>
		<g
   id="g53">
			<g
   id="g51">
				<path
   class="st3"
   d="M 561,86.4 V 108 c 0,1.2 0.3,2.1 0.8,2.7 0.5,0.6 1.5,1.2 2.9,1.6 v 1.6 h -22.9 v -1.6 c 1.4,-0.3 2.3,-0.8 2.9,-1.5 0.6,-0.7 0.8,-1.6 0.8,-2.8 V 55 c 0,-1.2 -0.3,-2.1 -0.8,-2.7 -0.5,-0.6 -1.5,-1.1 -2.9,-1.6 v -1.6 h 58.1 c 1.2,0 2.2,-0.3 2.8,-0.8 0.6,-0.5 1.1,-1.5 1.5,-2.9 h 1.6 v 19.2 h -1.6 c -0.4,-1.4 -0.9,-2.3 -1.5,-2.9 -0.6,-0.6 -1.6,-0.8 -2.8,-0.8 H 561 v 14.2 h 24.4 c 1.2,0 2.2,-0.3 2.8,-0.8 0.6,-0.5 1.1,-1.5 1.6,-2.9 h 1.6 v 18.7 h -1.6 c -0.4,-1.4 -0.9,-2.3 -1.5,-2.9 -0.6,-0.6 -1.6,-0.8 -2.8,-0.8 H 561 Z"
   id="path39"
   inkscape:connector-curvature="0"
   style="fill:#425e9c" />
				<path
   class="st3"
   d="m 649.6,47.7 c 10.3,0 18.9,2.6 25.8,7.9 8.2,6.3 12.3,15.2 12.3,26.5 0,10.6 -4.1,19.1 -12.3,25.4 -6.8,5.3 -15.4,7.9 -25.7,7.9 -10.3,0 -18.9,-2.6 -25.7,-7.9 -8.3,-6.3 -12.4,-15 -12.4,-25.9 0,-11.1 4.1,-19.7 12.4,-25.9 6.9,-5.2 15.4,-7.9 25.6,-8 z m 0.1,12.3 c -6.7,0 -12.1,2.1 -16.4,6.4 -3.9,4 -5.9,9.1 -5.9,15.1 0,6 2,11 5.9,15.1 4.2,4.3 9.7,6.5 16.4,6.5 6.7,0 12.1,-2.2 16.4,-6.5 3.9,-4 5.9,-8.9 5.9,-14.8 0,-6.4 -2,-11.5 -5.9,-15.4 -4.2,-4.2 -9.7,-6.3 -16.4,-6.4 z"
   id="path41"
   inkscape:connector-curvature="0"
   style="fill:#425e9c" />
				<path
   class="st3"
   d="M 716.9,87.3 V 108 c 0,1.2 0.3,2.1 0.8,2.7 0.5,0.6 1.5,1.2 2.9,1.6 v 1.6 h -22.9 v -1.6 c 1.4,-0.3 2.3,-0.8 2.9,-1.5 0.6,-0.7 0.8,-1.6 0.8,-2.8 V 55 c 0,-1.2 -0.3,-2.1 -0.8,-2.7 -0.5,-0.6 -1.5,-1.1 -2.9,-1.6 v -1.6 h 42.5 c 5.5,0 9.7,0.3 12.6,0.8 2.9,0.6 5.5,1.6 7.8,3 4.7,3.1 7,8 7,14.9 0,5.3 -1.4,9.4 -4.3,12.3 -2.9,2.9 -7.5,5.1 -13.9,6.4 l 12.3,17.1 c 2.2,3.2 4,5.3 5.4,6.4 1.3,1.1 2.8,1.9 4.5,2.2 v 1.6 h -27.3 v -1.6 c 2,-0.5 3,-1.4 3,-2.6 0,-0.8 -0.6,-2.1 -1.9,-3.9 l -13,-18.5 h -15.5 z m 0,-11.7 h 23.4 c 3.6,0 6.2,-0.4 7.9,-1.2 2.4,-1 3.6,-3.1 3.6,-6.2 0,-2.7 -0.8,-4.7 -2.5,-5.7 -1.7,-1.1 -4.7,-1.6 -8.9,-1.6 H 717 v 14.7 z"
   id="path43"
   inkscape:connector-curvature="0"
   style="fill:#425e9c" />
				<path
   class="st3"
   d="m 841.1,90.7 9.8,14.3 -1.3,1 c -0.9,-0.7 -1.7,-1 -2.2,-1 -0.7,0 -2.2,0.7 -4.6,2.1 -5.3,3.1 -10,5.2 -14,6.4 -4.1,1.2 -8.7,1.8 -14,1.8 -10.6,0 -19.2,-2.5 -25.9,-7.6 -3.8,-2.9 -6.8,-6.5 -9,-10.9 -2.4,-4.7 -3.6,-9.8 -3.6,-15.3 0,-7.6 2.2,-14.3 6.6,-20.2 6.9,-9.1 17.5,-13.7 31.8,-13.7 5.3,0 10,0.6 14.1,1.8 4.1,1.2 8.8,3.3 14,6.4 2.4,1.4 3.9,2.1 4.6,2.1 0.5,0 1.3,-0.3 2.2,-1 l 1.3,1 -9.8,14.2 -1.3,-0.9 c 0,-0.5 0.1,-0.7 0.1,-0.9 0,-0.3 0.1,-0.6 0.1,-0.7 0,-1.9 -2.6,-4 -7.8,-6.4 -4.9,-2.3 -9.9,-3.4 -14.9,-3.4 -7,0 -12.8,1.8 -17.4,5.5 -5.2,4.2 -7.8,9.5 -7.8,16 0,6.5 2.6,11.9 7.8,16.1 4.6,3.7 10.4,5.5 17.4,5.5 5.5,0 10.9,-1.4 16.4,-4.1 4.2,-2.2 6.4,-4.1 6.4,-5.7 0,-0.1 -0.1,-0.6 -0.2,-1.6 z"
   id="path45"
   inkscape:connector-curvature="0"
   style="fill:#425e9c" />
				<path
   class="st3"
   d="m 879.6,86.4 v 15.8 h 41.2 c 1.2,0 2.1,-0.3 2.7,-0.8 0.6,-0.5 1.1,-1.5 1.5,-2.9 h 1.6 v 19.2 H 925 c -0.3,-1.4 -0.8,-2.3 -1.5,-2.9 -0.7,-0.6 -1.6,-0.8 -2.8,-0.8 h -60.4 v -1.6 c 1.4,-0.3 2.3,-0.8 2.9,-1.5 0.6,-0.7 0.8,-1.6 0.8,-2.8 V 55 c 0,-1.2 -0.3,-2.1 -0.8,-2.7 -0.5,-0.6 -1.5,-1.1 -2.9,-1.6 v -1.6 h 58.6 c 1.2,0 2.2,-0.3 2.8,-0.8 0.6,-0.5 1.1,-1.5 1.5,-2.9 h 1.6 v 19.2 h -1.6 c -0.4,-1.4 -0.9,-2.4 -1.5,-2.9 -0.6,-0.5 -1.6,-0.8 -2.8,-0.8 H 879.5 V 75.1 H 904 c 1.2,0 2.1,-0.3 2.7,-0.8 0.6,-0.5 1.2,-1.5 1.6,-2.9 h 1.6 v 18.7 h -1.6 c -0.4,-1.4 -0.9,-2.3 -1.5,-2.9 -0.6,-0.6 -1.6,-0.8 -2.8,-0.8 z"
   id="path47"
   inkscape:connector-curvature="0"
   style="fill:#425e9c" />
				<path
   class="st3"
   d="m 998.8,55 -7.8,15.1 -1.4,-0.8 c 0,-1.3 -0.4,-2.3 -1.2,-3 -2.2,-2 -5.4,-3.6 -9.7,-4.9 -4.3,-1.3 -8.6,-1.9 -13,-1.9 -3.7,0 -7.1,0.5 -10,1.6 -4.2,1.5 -6.3,3.7 -6.3,6.5 0,1.9 1,3.2 3,4 2,0.8 5.9,1.4 11.6,1.9 l 9.1,0.7 c 8,0.6 14.1,2.2 18.2,4.6 2.3,1.4 4.2,3.2 5.7,5.6 1.9,2.9 2.8,6.2 2.8,9.8 0,6.6 -3,11.8 -8.9,15.6 -5.7,3.7 -13.4,5.5 -23,5.5 -9.8,0 -19.2,-2.1 -28.3,-6.2 -0.6,-0.3 -1.1,-0.4 -1.6,-0.4 -0.8,0 -1.5,0.5 -2.1,1.4 l -1.4,-0.6 6.7,-15.9 1.4,0.6 c 0,0.2 0,0.4 0,0.5 0,1 0.4,1.9 1.2,2.5 1.9,1.7 5.3,3.2 10,4.4 4.7,1.3 9.4,1.9 14.1,1.9 4.1,0 7.8,-0.5 11,-1.6 4,-1.3 6,-3.4 6,-6.4 0,-2.4 -1.4,-4 -4.2,-4.9 -1.9,-0.6 -5.2,-1.1 -10,-1.6 l -9.1,-0.8 c -4.9,-0.4 -8.6,-0.9 -11.2,-1.5 -2.6,-0.6 -4.8,-1.5 -6.8,-2.7 -2.5,-1.5 -4.4,-3.6 -5.8,-6.3 -1.4,-2.7 -2.1,-5.6 -2.1,-8.7 0,-7.1 3,-12.5 9.1,-16.3 5.6,-3.4 12.4,-5.1 20.6,-5.1 4.4,0 8.6,0.5 12.4,1.5 3.8,1 8.4,2.7 13.8,5.2 1.6,0.7 2.7,1.1 3.3,1.1 0.6,0 1.4,-0.4 2.4,-1.3 z"
   id="path49"
   inkscape:connector-curvature="0"
   style="fill:#425e9c" />
			</g>
		</g>
	</g>
</g>
</svg>